<mxfile host="app.diagrams.net" modified="2025-02-03T20:14:53.105Z" agent="Mozilla/5.0 (Windows NT 10.0; Win64; x64) AppleWebKit/537.36 (KHTML, like Gecko) Chrome/132.0.0.0 Safari/537.36" etag="ScNmsKk4xio-hFVcjmwp" version="24.3.1" type="device">
  <diagram id="C5RBs43oDa-KdzZeNtuy" name="Page-1">
    <mxGraphModel dx="658" dy="390" grid="1" gridSize="10" guides="1" tooltips="1" connect="1" arrows="1" fold="1" page="1" pageScale="1" pageWidth="827" pageHeight="1169" math="0" shadow="0">
      <root>
        <mxCell id="WIyWlLk6GJQsqaUBKTNV-0" />
        <mxCell id="WIyWlLk6GJQsqaUBKTNV-1" parent="WIyWlLk6GJQsqaUBKTNV-0" />
        <mxCell id="qrcqOmY3jq-xqf2S0x7K-9" value="Celda" style="swimlane;fontStyle=1;align=center;verticalAlign=top;childLayout=stackLayout;horizontal=1;startSize=26;horizontalStack=0;resizeParent=1;resizeParentMax=0;resizeLast=0;collapsible=1;marginBottom=0;whiteSpace=wrap;html=1;" vertex="1" parent="WIyWlLk6GJQsqaUBKTNV-1">
          <mxGeometry x="160" y="110" width="160" height="112" as="geometry" />
        </mxCell>
        <mxCell id="qrcqOmY3jq-xqf2S0x7K-13" value="visible:Bool" style="text;strokeColor=none;fillColor=none;align=left;verticalAlign=top;spacingLeft=4;spacingRight=4;overflow=hidden;rotatable=0;points=[[0,0.5],[1,0.5]];portConstraint=eastwest;whiteSpace=wrap;html=1;" vertex="1" parent="qrcqOmY3jq-xqf2S0x7K-9">
          <mxGeometry y="26" width="160" height="26" as="geometry" />
        </mxCell>
        <mxCell id="qrcqOmY3jq-xqf2S0x7K-37" value="x:int" style="text;strokeColor=none;fillColor=none;align=left;verticalAlign=top;spacingLeft=4;spacingRight=4;overflow=hidden;rotatable=0;points=[[0,0.5],[1,0.5]];portConstraint=eastwest;whiteSpace=wrap;html=1;" vertex="1" parent="qrcqOmY3jq-xqf2S0x7K-9">
          <mxGeometry y="52" width="160" height="26" as="geometry" />
        </mxCell>
        <mxCell id="qrcqOmY3jq-xqf2S0x7K-38" value="y&lt;span style=&quot;background-color: initial;&quot;&gt;:int&lt;/span&gt;" style="text;strokeColor=none;fillColor=none;align=left;verticalAlign=top;spacingLeft=4;spacingRight=4;overflow=hidden;rotatable=0;points=[[0,0.5],[1,0.5]];portConstraint=eastwest;whiteSpace=wrap;html=1;" vertex="1" parent="qrcqOmY3jq-xqf2S0x7K-9">
          <mxGeometry y="78" width="160" height="26" as="geometry" />
        </mxCell>
        <mxCell id="qrcqOmY3jq-xqf2S0x7K-11" value="" style="line;strokeWidth=1;fillColor=none;align=left;verticalAlign=middle;spacingTop=-1;spacingLeft=3;spacingRight=3;rotatable=0;labelPosition=right;points=[];portConstraint=eastwest;strokeColor=inherit;" vertex="1" parent="qrcqOmY3jq-xqf2S0x7K-9">
          <mxGeometry y="104" width="160" height="8" as="geometry" />
        </mxCell>
        <mxCell id="qrcqOmY3jq-xqf2S0x7K-20" value="Numerales" style="swimlane;fontStyle=1;align=center;verticalAlign=top;childLayout=stackLayout;horizontal=1;startSize=26;horizontalStack=0;resizeParent=1;resizeParentMax=0;resizeLast=0;collapsible=1;marginBottom=0;whiteSpace=wrap;html=1;" vertex="1" parent="WIyWlLk6GJQsqaUBKTNV-1">
          <mxGeometry x="440" y="118" width="160" height="86" as="geometry" />
        </mxCell>
        <mxCell id="qrcqOmY3jq-xqf2S0x7K-21" value="texturas: textura[]" style="text;strokeColor=none;fillColor=none;align=left;verticalAlign=top;spacingLeft=4;spacingRight=4;overflow=hidden;rotatable=0;points=[[0,0.5],[1,0.5]];portConstraint=eastwest;whiteSpace=wrap;html=1;" vertex="1" parent="qrcqOmY3jq-xqf2S0x7K-20">
          <mxGeometry y="26" width="160" height="26" as="geometry" />
        </mxCell>
        <mxCell id="qrcqOmY3jq-xqf2S0x7K-22" value="" style="line;strokeWidth=1;fillColor=none;align=left;verticalAlign=middle;spacingTop=-1;spacingLeft=3;spacingRight=3;rotatable=0;labelPosition=right;points=[];portConstraint=eastwest;strokeColor=inherit;" vertex="1" parent="qrcqOmY3jq-xqf2S0x7K-20">
          <mxGeometry y="52" width="160" height="8" as="geometry" />
        </mxCell>
        <mxCell id="qrcqOmY3jq-xqf2S0x7K-23" value="initNumerales():void" style="text;strokeColor=none;fillColor=none;align=left;verticalAlign=top;spacingLeft=4;spacingRight=4;overflow=hidden;rotatable=0;points=[[0,0.5],[1,0.5]];portConstraint=eastwest;whiteSpace=wrap;html=1;" vertex="1" parent="qrcqOmY3jq-xqf2S0x7K-20">
          <mxGeometry y="60" width="160" height="26" as="geometry" />
        </mxCell>
        <mxCell id="qrcqOmY3jq-xqf2S0x7K-24" value="CeldaBomba&lt;div&gt;&lt;br&gt;&lt;/div&gt;" style="swimlane;fontStyle=1;align=center;verticalAlign=top;childLayout=stackLayout;horizontal=1;startSize=26;horizontalStack=0;resizeParent=1;resizeParentMax=0;resizeLast=0;collapsible=1;marginBottom=0;whiteSpace=wrap;html=1;" vertex="1" parent="WIyWlLk6GJQsqaUBKTNV-1">
          <mxGeometry x="50" y="310" width="160" height="112" as="geometry" />
        </mxCell>
        <mxCell id="qrcqOmY3jq-xqf2S0x7K-25" value="&lt;div&gt;&lt;br&gt;&lt;/div&gt;&lt;div&gt;&lt;br&gt;&lt;/div&gt;" style="text;strokeColor=none;fillColor=none;align=left;verticalAlign=top;spacingLeft=4;spacingRight=4;overflow=hidden;rotatable=0;points=[[0,0.5],[1,0.5]];portConstraint=eastwest;whiteSpace=wrap;html=1;" vertex="1" parent="qrcqOmY3jq-xqf2S0x7K-24">
          <mxGeometry y="26" width="160" height="26" as="geometry" />
        </mxCell>
        <mxCell id="qrcqOmY3jq-xqf2S0x7K-26" value="" style="line;strokeWidth=1;fillColor=none;align=left;verticalAlign=middle;spacingTop=-1;spacingLeft=3;spacingRight=3;rotatable=0;labelPosition=right;points=[];portConstraint=eastwest;strokeColor=inherit;" vertex="1" parent="qrcqOmY3jq-xqf2S0x7K-24">
          <mxGeometry y="52" width="160" height="8" as="geometry" />
        </mxCell>
        <mxCell id="qrcqOmY3jq-xqf2S0x7K-27" value="revelar():void" style="text;strokeColor=none;fillColor=none;align=left;verticalAlign=top;spacingLeft=4;spacingRight=4;overflow=hidden;rotatable=0;points=[[0,0.5],[1,0.5]];portConstraint=eastwest;whiteSpace=wrap;html=1;" vertex="1" parent="qrcqOmY3jq-xqf2S0x7K-24">
          <mxGeometry y="60" width="160" height="26" as="geometry" />
        </mxCell>
        <mxCell id="qrcqOmY3jq-xqf2S0x7K-43" value="bandera()&lt;span style=&quot;background-color: initial;&quot;&gt;:void&lt;/span&gt;" style="text;strokeColor=none;fillColor=none;align=left;verticalAlign=top;spacingLeft=4;spacingRight=4;overflow=hidden;rotatable=0;points=[[0,0.5],[1,0.5]];portConstraint=eastwest;whiteSpace=wrap;html=1;" vertex="1" parent="qrcqOmY3jq-xqf2S0x7K-24">
          <mxGeometry y="86" width="160" height="26" as="geometry" />
        </mxCell>
        <mxCell id="qrcqOmY3jq-xqf2S0x7K-28" value="CeldaSinBomba" style="swimlane;fontStyle=1;align=center;verticalAlign=top;childLayout=stackLayout;horizontal=1;startSize=26;horizontalStack=0;resizeParent=1;resizeParentMax=0;resizeLast=0;collapsible=1;marginBottom=0;whiteSpace=wrap;html=1;" vertex="1" parent="WIyWlLk6GJQsqaUBKTNV-1">
          <mxGeometry x="270" y="310" width="160" height="138" as="geometry" />
        </mxCell>
        <mxCell id="qrcqOmY3jq-xqf2S0x7K-29" value="field: type" style="text;strokeColor=none;fillColor=none;align=left;verticalAlign=top;spacingLeft=4;spacingRight=4;overflow=hidden;rotatable=0;points=[[0,0.5],[1,0.5]];portConstraint=eastwest;whiteSpace=wrap;html=1;" vertex="1" parent="qrcqOmY3jq-xqf2S0x7K-28">
          <mxGeometry y="26" width="160" height="26" as="geometry" />
        </mxCell>
        <mxCell id="qrcqOmY3jq-xqf2S0x7K-15" value="numeral: int" style="text;strokeColor=none;fillColor=none;align=left;verticalAlign=top;spacingLeft=4;spacingRight=4;overflow=hidden;rotatable=0;points=[[0,0.5],[1,0.5]];portConstraint=eastwest;whiteSpace=wrap;html=1;" vertex="1" parent="qrcqOmY3jq-xqf2S0x7K-28">
          <mxGeometry y="52" width="160" height="26" as="geometry" />
        </mxCell>
        <mxCell id="qrcqOmY3jq-xqf2S0x7K-30" value="" style="line;strokeWidth=1;fillColor=none;align=left;verticalAlign=middle;spacingTop=-1;spacingLeft=3;spacingRight=3;rotatable=0;labelPosition=right;points=[];portConstraint=eastwest;strokeColor=inherit;" vertex="1" parent="qrcqOmY3jq-xqf2S0x7K-28">
          <mxGeometry y="78" width="160" height="8" as="geometry" />
        </mxCell>
        <mxCell id="qrcqOmY3jq-xqf2S0x7K-31" value="revelar():void" style="text;strokeColor=none;fillColor=none;align=left;verticalAlign=top;spacingLeft=4;spacingRight=4;overflow=hidden;rotatable=0;points=[[0,0.5],[1,0.5]];portConstraint=eastwest;whiteSpace=wrap;html=1;" vertex="1" parent="qrcqOmY3jq-xqf2S0x7K-28">
          <mxGeometry y="86" width="160" height="26" as="geometry" />
        </mxCell>
        <mxCell id="qrcqOmY3jq-xqf2S0x7K-42" value="bandera()&lt;span style=&quot;background-color: initial;&quot;&gt;:void&lt;/span&gt;" style="text;strokeColor=none;fillColor=none;align=left;verticalAlign=top;spacingLeft=4;spacingRight=4;overflow=hidden;rotatable=0;points=[[0,0.5],[1,0.5]];portConstraint=eastwest;whiteSpace=wrap;html=1;" vertex="1" parent="qrcqOmY3jq-xqf2S0x7K-28">
          <mxGeometry y="112" width="160" height="26" as="geometry" />
        </mxCell>
        <mxCell id="qrcqOmY3jq-xqf2S0x7K-35" value="" style="endArrow=block;endSize=16;endFill=0;html=1;rounded=0;exitX=0.5;exitY=0;exitDx=0;exitDy=0;entryX=0.5;entryY=1;entryDx=0;entryDy=0;" edge="1" parent="WIyWlLk6GJQsqaUBKTNV-1" source="qrcqOmY3jq-xqf2S0x7K-24" target="qrcqOmY3jq-xqf2S0x7K-9">
          <mxGeometry width="160" relative="1" as="geometry">
            <mxPoint x="210" y="260" as="sourcePoint" />
            <mxPoint x="370" y="260" as="targetPoint" />
            <Array as="points">
              <mxPoint x="130" y="290" />
              <mxPoint x="240" y="290" />
            </Array>
          </mxGeometry>
        </mxCell>
        <mxCell id="qrcqOmY3jq-xqf2S0x7K-36" value="" style="endArrow=block;endSize=16;endFill=0;html=1;rounded=0;exitX=0.5;exitY=0;exitDx=0;exitDy=0;" edge="1" parent="WIyWlLk6GJQsqaUBKTNV-1" source="qrcqOmY3jq-xqf2S0x7K-28">
          <mxGeometry width="160" relative="1" as="geometry">
            <mxPoint x="390" y="290" as="sourcePoint" />
            <mxPoint x="240" y="220" as="targetPoint" />
            <Array as="points">
              <mxPoint x="350" y="290" />
              <mxPoint x="240" y="290" />
            </Array>
          </mxGeometry>
        </mxCell>
        <mxCell id="qrcqOmY3jq-xqf2S0x7K-45" value="" style="endArrow=open;endSize=12;dashed=1;html=1;rounded=0;" edge="1" parent="WIyWlLk6GJQsqaUBKTNV-1" source="qrcqOmY3jq-xqf2S0x7K-28" target="qrcqOmY3jq-xqf2S0x7K-23">
          <mxGeometry width="160" relative="1" as="geometry">
            <mxPoint x="260" y="290" as="sourcePoint" />
            <mxPoint x="420" y="290" as="targetPoint" />
          </mxGeometry>
        </mxCell>
      </root>
    </mxGraphModel>
  </diagram>
</mxfile>
